<?xml version="1.0" encoding="UTF-8"?>
<svg id="Layer_1" data-name="Layer 1" xmlns="http://www.w3.org/2000/svg" xmlns:xlink="http://www.w3.org/1999/xlink" viewBox="0 0 1646 965">
  <defs>
    <style>
      .cls-1 {
        clip-path: url(#clippath-21);
      }

      .cls-2 {
        clip-path: url(#clippath-6);
      }

      .cls-3 {
        clip-path: url(#clippath-7);
      }

      .cls-4 {
        clip-path: url(#clippath-17);
      }

      .cls-5 {
        clip-path: url(#clippath-15);
      }

      .cls-6 {
        fill: #6161c8;
      }

      .cls-7 {
        clip-path: url(#clippath-18);
      }

      .cls-8 {
        fill: #838383;
      }

      .cls-9 {
        clip-path: url(#clippath-4);
      }

      .cls-10 {
        fill: #004347;
      }

      .cls-11 {
        clip-path: url(#clippath-22);
      }

      .cls-12 {
        clip-path: url(#clippath-23);
      }

      .cls-13 {
        clip-path: url(#clippath-9);
      }

      .cls-14 {
        clip-path: url(#clippath-10);
      }

      .cls-15 {
        stroke: #fff;
      }

      .cls-15, .cls-16 {
        fill: #fff;
      }

      .cls-15, .cls-17 {
        stroke-miterlimit: 10;
      }

      .cls-18 {
        fill: #d2273d;
      }

      .cls-19 {
        fill: #00848d;
      }

      .cls-20 {
        clip-path: url(#clippath-25);
      }

      .cls-21 {
        clip-path: url(#clippath-27);
      }

      .cls-22 {
        clip-path: url(#clippath-11);
      }

      .cls-23 {
        fill: #535353;
      }

      .cls-24 {
        fill: none;
      }

      .cls-17 {
        stroke: #000;
      }

      .cls-25 {
        fill: #ffc602;
      }

      .cls-26 {
        clip-path: url(#clippath-1);
      }

      .cls-27 {
        fill: #a2a2e4;
      }

      .cls-28 {
        fill: #b88f02;
      }

      .cls-29 {
        fill: #414186;
      }

      .cls-30 {
        fill: #006c73;
      }

      .cls-31 {
        clip-path: url(#clippath-5);
      }

      .cls-32 {
        clip-path: url(#clippath-20);
      }

      .cls-33 {
        fill: #3a3a3a;
      }

      .cls-34 {
        clip-path: url(#clippath-8);
      }

      .cls-35 {
        fill: #675001;
      }

      .cls-36 {
        clip-path: url(#clippath-3);
      }

      .cls-37 {
        clip-path: url(#clippath-26);
      }

      .cls-38 {
        clip-path: url(#clippath-12);
      }

      .cls-39 {
        clip-path: url(#clippath-14);
      }

      .cls-40 {
        clip-path: url(#clippath-19);
      }

      .cls-41 {
        fill: #ffe17b;
      }

      .cls-42 {
        fill: #ff7385;
      }

      .cls-43 {
        fill: #00aeb9;
      }

      .cls-44 {
        fill: #5ee1f0;
      }

      .cls-45 {
        clip-path: url(#clippath-16);
      }

      .cls-46 {
        clip-path: url(#clippath-2);
      }

      .cls-47 {
        fill: #520f18;
      }

      .cls-48 {
        fill: #2a2a57;
      }

      .cls-49 {
        clip-path: url(#clippath-13);
      }

      .cls-50 {
        fill: #efdadd;
      }

      .cls-51 {
        fill: #7c1724;
      }

      .cls-52 {
        clip-path: url(#clippath-24);
      }

      .cls-53 {
        clip-path: url(#clippath);
      }
    </style>
    <clipPath id="clippath">
      <circle class="cls-24" cx="275.87" cy="280.13" r="18.22"/>
    </clipPath>
    <clipPath id="clippath-1">
      <circle class="cls-24" cx="275.87" cy="280.13" r="18.22"/>
    </clipPath>
    <clipPath id="clippath-2">
      <path class="cls-24" d="M150.25,292.24s-39.63,6.17-51.53,13.72c-11.89,7.56-4.21,13.31-3.37,14.46,1.86,2.42,19.25,14.17,57.79,20.08,38.53,5.91,55.92,15.37,55.92,15.37,0,0,169.25,6.34,177.2,6.85,7.95.51,16.82-.21,18.29-.65s44.3-16.87,52.38-15.28c0,0,7.2.66,14.24-1.94,7.04-2.59,4.66-13.05,4.21-15.54-.43-2.38-1.12-11.21,11.16-14.31,1.28-.33,2.2-1.45,2.28-2.77.2-3.3.29-11.21-.4-30.21-.02-.44-.08-.87-.2-1.29-.45-1.57-1.79-5.19-4.66-5.35-3.55-.2-24.62,1.64-33.45-9.7-.62-.8-1.58-1.26-2.59-1.29-5.37-.12-21.76-.06-26.66,4.77,0,0-2.57,1.95-1.61,19.23.02.37.11.74.26,1.08.42.93,1.55,2.72,4.49,4.84,4.32,3.12-17.53,3.25-17.53,3.25,0,0-9.17-.91-38.78-23.53-29.61-22.61-48.14-17.79-48.14-17.79,0,0,.15-6.02-3.56-5.99,0,0-16.29.56-17.23.72s-3.58.97-3.43,7.94c.15,6.96,1.17,28.57.81,28.65-.36.08-32.28,4.46-51.43,3.94-19.15-.51-56.24-3.55-94.46.72h.02Z"/>
    </clipPath>
    <clipPath id="clippath-3">
      <path class="cls-24" d="M150.25,292.24s-39.63,6.17-51.53,13.72c-11.89,7.56-4.21,13.31-3.37,14.46,1.86,2.42,19.25,14.17,57.79,20.08,38.53,5.91,55.92,15.37,55.92,15.37,0,0,169.25,6.34,177.2,6.85,7.95.51,16.82-.21,18.29-.65s44.3-16.87,52.38-15.28c0,0,7.2.66,14.24-1.94,7.04-2.59,4.66-13.05,4.21-15.54-.43-2.38-1.12-11.21,11.16-14.31,1.28-.33,2.2-1.45,2.28-2.77.2-3.3.29-11.21-.4-30.21-.02-.44-.08-.87-.2-1.29-.45-1.57-1.79-5.19-4.66-5.35-3.55-.2-24.62,1.64-33.45-9.7-.62-.8-1.58-1.26-2.59-1.29-5.37-.12-21.76-.06-26.66,4.77,0,0-2.57,1.95-1.61,19.23.02.37.11.74.26,1.08.42.93,1.55,2.72,4.49,4.84,4.32,3.12-17.53,3.25-17.53,3.25,0,0-9.17-.91-38.78-23.53-29.61-22.61-48.14-17.79-48.14-17.79,0,0,.15-6.02-3.56-5.99,0,0-16.29.56-17.23.72s-3.58.97-3.43,7.94c.15,6.96,1.17,28.57.81,28.65-.36.08-32.28,4.46-51.43,3.94-19.15-.51-56.24-3.55-94.46.72h.02Z"/>
    </clipPath>
    <clipPath id="clippath-4">
      <path class="cls-24" d="M107.2,316.49s-14.15.78-10.1,18.71c0,0,1.56,5.52,20.15,8.2,0,0,24.65,4.9,28.21-1.78s2.78-18.06,1.29-19.65c-2.78-2.98-17.25-7.61-39.55-5.48h0Z"/>
    </clipPath>
    <clipPath id="clippath-5">
      <circle class="cls-24" cx="189.05" cy="327.78" r="18.1"/>
    </clipPath>
    <clipPath id="clippath-6">
      <circle class="cls-24" cx="424.46" cy="327.78" r="17.22"/>
    </clipPath>
    <clipPath id="clippath-7">
      <circle class="cls-24" cx="1150" cy="272.78" r="18.76"/>
    </clipPath>
    <clipPath id="clippath-8">
      <circle class="cls-24" cx="1150" cy="272.78" r="18.76"/>
    </clipPath>
    <clipPath id="clippath-9">
      <path class="cls-24" d="M1020.7,285.24s-40.8,6.35-53.03,14.12c-12.24,7.78-4.33,13.7-3.47,14.88,1.91,2.49,19.82,14.59,59.48,20.67,39.66,6.08,57.55,15.82,57.55,15.82,0,0,174.21,6.53,182.39,7.05,8.18.53,17.31-.21,18.83-.67s45.59-17.37,53.92-15.72c0,0,7.41.68,14.66-2,7.25-2.67,4.79-13.43,4.33-16-.44-2.44-1.15-11.53,11.48-14.73,1.32-.33,2.26-1.5,2.34-2.85.2-3.39.3-11.54-.41-31.1-.02-.45-.08-.89-.2-1.33-.46-1.61-1.84-5.34-4.8-5.5-3.65-.2-25.34,1.68-34.43-9.98-.64-.82-1.63-1.3-2.67-1.32-5.53-.12-22.4-.06-27.44,4.91,0,0-2.64,2-1.66,19.79.02.39.11.76.27,1.11.43.95,1.59,2.8,4.62,4.98,4.45,3.21-18.04,3.34-18.04,3.34,0,0-9.44-.94-39.91-24.21-30.48-23.27-49.55-18.31-49.55-18.31,0,0,.15-6.2-3.67-6.16,0,0-16.77.57-17.73.74s-3.68,1-3.53,8.17c.15,7.17,1.21,29.41.84,29.49-.37.08-33.23,4.59-52.94,4.06-19.71-.53-57.88-3.66-97.22.74h.02Z"/>
    </clipPath>
    <clipPath id="clippath-10">
      <path class="cls-24" d="M1020.7,285.24s-40.8,6.35-53.03,14.12c-12.24,7.78-4.33,13.7-3.47,14.88,1.91,2.49,19.82,14.59,59.48,20.67,39.66,6.08,57.55,15.82,57.55,15.82,0,0,174.21,6.53,182.39,7.05,8.18.53,17.31-.21,18.83-.67s45.59-17.37,53.92-15.72c0,0,7.41.68,14.66-2,7.25-2.67,4.79-13.43,4.33-16-.44-2.44-1.15-11.53,11.48-14.73,1.32-.33,2.26-1.5,2.34-2.85.2-3.39.3-11.54-.41-31.1-.02-.45-.08-.89-.2-1.33-.46-1.61-1.84-5.34-4.8-5.5-3.65-.2-25.34,1.68-34.43-9.98-.64-.82-1.63-1.3-2.67-1.32-5.53-.12-22.4-.06-27.44,4.91,0,0-2.64,2-1.66,19.79.02.39.11.76.27,1.11.43.95,1.59,2.8,4.62,4.98,4.45,3.21-18.04,3.34-18.04,3.34,0,0-9.44-.94-39.91-24.21-30.48-23.27-49.55-18.31-49.55-18.31,0,0,.15-6.2-3.67-6.16,0,0-16.77.57-17.73.74s-3.68,1-3.53,8.17c.15,7.17,1.21,29.41.84,29.49-.37.08-33.23,4.59-52.94,4.06-19.71-.53-57.88-3.66-97.22.74h.02Z"/>
    </clipPath>
    <clipPath id="clippath-11">
      <path class="cls-24" d="M976.39,310.2s-14.56.81-10.4,19.26c0,0,1.61,5.68,20.74,8.44,0,0,25.37,5.05,29.04-1.83,3.67-6.88,2.86-18.59,1.33-20.23-2.86-3.06-17.76-7.83-40.71-5.64h0Z"/>
    </clipPath>
    <clipPath id="clippath-12">
      <circle class="cls-24" cx="1060.64" cy="321.82" r="18.63"/>
    </clipPath>
    <clipPath id="clippath-13">
      <circle class="cls-24" cx="1302.94" cy="321.82" r="17.73"/>
    </clipPath>
    <clipPath id="clippath-14">
      <circle class="cls-24" cx="289.55" cy="759.92" r="19.58"/>
    </clipPath>
    <clipPath id="clippath-15">
      <circle class="cls-24" cx="289.55" cy="759.92" r="19.58"/>
    </clipPath>
    <clipPath id="clippath-16">
      <path class="cls-24" d="M154.59,772.93s-42.58,6.63-55.36,14.74c-12.77,8.12-4.52,14.3-3.62,15.54,2,2.6,20.68,15.23,62.08,21.57,41.4,6.34,60.07,16.51,60.07,16.51,0,0,181.83,6.81,190.37,7.36,8.54.55,18.07-.22,19.65-.69s47.59-18.13,56.28-16.41c0,0,7.73.71,15.3-2.08,7.57-2.79,5-14.02,4.52-16.7-.46-2.55-1.2-12.04,11.99-15.38,1.38-.35,2.36-1.56,2.44-2.98.21-3.54.32-12.04-.43-32.46-.02-.47-.09-.93-.21-1.38-.48-1.68-1.92-5.58-5.01-5.74-3.81-.21-26.45,1.76-35.94-10.42-.67-.86-1.7-1.36-2.79-1.38-5.77-.13-23.38-.06-28.64,5.13,0,0-2.76,2.09-1.73,20.66.02.4.12.8.28,1.16.45.99,1.66,2.92,4.82,5.2,4.64,3.35-18.83,3.49-18.83,3.49,0,0-9.85-.98-41.66-25.27-31.81-24.29-51.72-19.11-51.72-19.11,0,0,.16-6.47-3.83-6.43,0,0-17.5.6-18.51.77s-3.84,1.04-3.68,8.53c.16,7.48,1.26,30.69.88,30.78-.39.09-34.68,4.79-55.25,4.24-20.57-.55-60.42-3.82-101.48.77h.02Z"/>
    </clipPath>
    <clipPath id="clippath-17">
      <path class="cls-24" d="M154.59,772.93s-42.58,6.63-55.36,14.74c-12.77,8.12-4.52,14.3-3.62,15.54,2,2.6,20.68,15.23,62.08,21.57,41.4,6.34,60.07,16.51,60.07,16.51,0,0,181.83,6.81,190.37,7.36,8.54.55,18.07-.22,19.65-.69s47.59-18.13,56.28-16.41c0,0,7.73.71,15.3-2.08,7.57-2.79,5-14.02,4.52-16.7-.46-2.55-1.2-12.04,11.99-15.38,1.38-.35,2.36-1.56,2.44-2.98.21-3.54.32-12.04-.43-32.46-.02-.47-.09-.93-.21-1.38-.48-1.68-1.92-5.58-5.01-5.74-3.81-.21-26.45,1.76-35.94-10.42-.67-.86-1.7-1.36-2.79-1.38-5.77-.13-23.38-.06-28.64,5.13,0,0-2.76,2.09-1.73,20.66.02.4.12.8.28,1.16.45.99,1.66,2.92,4.82,5.2,4.64,3.35-18.83,3.49-18.83,3.49,0,0-9.85-.98-41.66-25.27-31.81-24.29-51.72-19.11-51.72-19.11,0,0,.16-6.47-3.83-6.43,0,0-17.5.6-18.51.77s-3.84,1.04-3.68,8.53c.16,7.48,1.26,30.69.88,30.78-.39.09-34.68,4.79-55.25,4.24-20.57-.55-60.42-3.82-101.48.77h.02Z"/>
    </clipPath>
    <clipPath id="clippath-18">
      <path class="cls-24" d="M108.34,798.99s-15.2.84-10.86,20.11c0,0,1.68,5.93,21.65,8.81,0,0,26.48,5.27,30.31-1.91s2.99-19.4,1.39-21.12c-2.99-3.2-18.54-8.18-42.49-5.89h0Z"/>
    </clipPath>
    <clipPath id="clippath-19">
      <circle class="cls-24" cx="196.28" cy="811.11" r="19.44"/>
    </clipPath>
    <clipPath id="clippath-20">
      <circle class="cls-24" cx="449.19" cy="811.11" r="18.5"/>
    </clipPath>
    <clipPath id="clippath-21">
      <circle class="cls-24" cx="1166.63" cy="772.4" r="18.91"/>
    </clipPath>
    <clipPath id="clippath-22">
      <circle class="cls-24" cx="1166.63" cy="772.4" r="18.91"/>
    </clipPath>
    <clipPath id="clippath-23">
      <path class="cls-24" d="M1036.29,784.96s-41.12,6.4-53.46,14.24c-12.34,7.84-4.36,13.81-3.5,15,1.93,2.51,19.98,14.71,59.95,20.83,39.98,6.13,58.01,15.95,58.01,15.95,0,0,175.6,6.58,183.85,7.11,8.25.53,17.45-.21,18.98-.67s45.96-17.51,54.35-15.85c0,0,7.47.68,14.78-2.01,7.31-2.69,4.83-13.54,4.36-16.13-.44-2.46-1.16-11.63,11.58-14.85,1.33-.34,2.28-1.51,2.36-2.88.2-3.42.31-11.63-.42-31.35-.02-.45-.08-.9-.21-1.34-.46-1.63-1.85-5.38-4.84-5.55-3.68-.2-25.54,1.7-34.71-10.06-.65-.83-1.64-1.31-2.69-1.33-5.57-.12-22.57-.06-27.66,4.95,0,0-2.66,2.02-1.67,19.95.02.39.11.77.27,1.12.44.96,1.6,2.82,4.65,5.02,4.48,3.23-18.19,3.37-18.19,3.37,0,0-9.51-.95-40.23-24.41-30.72-23.46-49.95-18.46-49.95-18.46,0,0,.15-6.25-3.7-6.21,0,0-16.9.58-17.88.74s-3.71,1-3.56,8.23c.15,7.23,1.22,29.64.85,29.73-.37.08-33.49,4.62-53.36,4.09-19.86-.53-58.35-3.69-98,.75h.02Z"/>
    </clipPath>
    <clipPath id="clippath-24">
      <path class="cls-24" d="M1036.29,784.96s-41.12,6.4-53.46,14.24c-12.34,7.84-4.36,13.81-3.5,15,1.93,2.51,19.98,14.71,59.95,20.83,39.98,6.13,58.01,15.95,58.01,15.95,0,0,175.6,6.58,183.85,7.11,8.25.53,17.45-.21,18.98-.67s45.96-17.51,54.35-15.85c0,0,7.47.68,14.78-2.01,7.31-2.69,4.83-13.54,4.36-16.13-.44-2.46-1.16-11.63,11.58-14.85,1.33-.34,2.28-1.51,2.36-2.88.2-3.42.31-11.63-.42-31.35-.02-.45-.08-.9-.21-1.34-.46-1.63-1.85-5.38-4.84-5.55-3.68-.2-25.54,1.7-34.71-10.06-.65-.83-1.64-1.31-2.69-1.33-5.57-.12-22.57-.06-27.66,4.95,0,0-2.66,2.02-1.67,19.95.02.39.11.77.27,1.12.44.96,1.6,2.82,4.65,5.02,4.48,3.23-18.19,3.37-18.19,3.37,0,0-9.51-.95-40.23-24.41-30.72-23.46-49.95-18.46-49.95-18.46,0,0,.15-6.25-3.7-6.21,0,0-16.9.58-17.88.74s-3.71,1-3.56,8.23c.15,7.23,1.22,29.64.85,29.73-.37.08-33.49,4.62-53.36,4.09-19.86-.53-58.35-3.69-98,.75h.02Z"/>
    </clipPath>
    <clipPath id="clippath-25">
      <path class="cls-24" d="M991.63,810.12s-14.68.81-10.48,19.42c0,0,1.62,5.73,20.91,8.51,0,0,25.57,5.09,29.27-1.85,3.7-6.94,2.88-18.74,1.34-20.39-2.88-3.09-17.9-7.9-41.04-5.69h0Z"/>
    </clipPath>
    <clipPath id="clippath-26">
      <circle class="cls-24" cx="1076.55" cy="821.83" r="18.78"/>
    </clipPath>
    <clipPath id="clippath-27">
      <circle class="cls-24" cx="1320.79" cy="821.83" r="17.87"/>
    </clipPath>
  </defs>
  <g id="helmet">
    <circle class="cls-25" cx="275.87" cy="280.13" r="18.22"/>
  </g>
  <g id="Layer_18" data-name="Layer 18">
    <g class="cls-53">
      <path class="cls-28" d="M256.89,284.8s5.09,4.93,29.31,4.83l-30.21,7.18.9-12.01h0Z"/>
    </g>
  </g>
  <g id="helmet_visor" data-name="helmet visor">
    <g class="cls-26">
      <path class="cls-50" d="M255.32,273.47s11.33-.16,13.93.3c2.44.43,2.64,1.52,2.64,1.52,0,0,.66,3.11-1.52,6.47s-4.43,4.95-11.75,6.57c-7.33,1.62-10.1-8.12-10.1-8.12l6.8-6.74h0Z"/>
    </g>
  </g>
  <g id="helmet_shine" data-name="helmet shine">
    <path class="cls-41" d="M281.66,266.88l1.13-1.36c.24-.29.66-.36.99-.16,1.44.89,5.2,3.5,6.48,7.39.13.41-.1.84-.51.96l-1.69.51c-.37.11-.77-.08-.93-.44-.49-1.17-1.89-3.69-5.27-5.76-.4-.24-.49-.78-.2-1.14h0Z"/>
  </g>
  <g id="body">
    <path class="cls-6" d="M488.21,280.74c-.45-1.57-1.79-5.19-4.66-5.35-3.55-.2-24.62,1.64-33.45-9.7-.62-.8-1.58-1.26-2.59-1.29-5.37-.12-21.76-.06-26.66,4.77,0,0-2.57,1.95-1.61,19.23.02.37.11.74.26,1.08.42.93,1.55,2.72,4.49,4.84,4.32,3.12-17.53,3.25-17.53,3.25,0,0-9.17-.91-38.78-23.53-29.61-22.61-48.14-17.79-48.14-17.79,0,0,.15-6.02-3.56-5.99,0,0-16.29.56-17.23.72s-3.58.97-3.43,7.94c.15,6.97,1.17,28.57.81,28.65-.36.08-32.28,4.46-51.43,3.94-19.15-.51-56.24-3.55-94.46.72,0,0-39.63,6.17-51.53,13.72s-4.21,13.31-3.37,14.46c1.86,2.42,19.25,14.17,57.79,20.08,38.53,5.91,55.92,15.37,55.92,15.37,0,0,169.25,6.34,177.2,6.85,7.95.51,16.82-.21,18.29-.65,1.47-.44,44.3-16.87,52.38-15.28,0,0,7.2.66,14.24-1.94,7.04-2.59,4.66-13.05,4.21-15.54-.43-2.38-1.12-11.21,11.16-14.31,1.28-.33,2.2-1.45,2.28-2.77.2-3.3.29-11.21-.4-30.21-.02-.44-.08-.87-.2-1.29h.02Z"/>
  </g>
  <g id="shadows">
    <g class="cls-46">
      <g>
        <path class="cls-29" d="M220.43,310.02l165.33,6.34-161.3-.46,1.24,5.55,111.66,7.19-106.89-1.98s48.54,19.51,126.9,26.59c60.99,5.52,59.23,4.46,59.23,4.46l-48.88,24.84s-165.47-14.33-165.87-14.33,18.58-58.2,18.58-58.2h0Z"/>
        <path class="cls-29" d="M290.76,280.73s25.51,3.7,34.72,7.66c2.64,1.13-8.22-.46-15.49,1.16s-27.74,3.37-36.35,3.83-15.81,1.75-21.53-3.11c-5.71-4.86,38.65-9.54,38.65-9.54h0Z"/>
        <path class="cls-29" d="M458.74,313.69s11.14,9.61,2.36,40.07l-8.01-2.47,5.65-37.59h0Z"/>
      </g>
    </g>
  </g>
  <g id="dark_shadows" data-name="dark shadows">
    <g class="cls-36">
      <path class="cls-48" d="M216.52,342.4s30.37,11.23,59.43,13.87c29.06,2.64,93.77,6.47,104.6,5.94,10.83-.53-8.05,37.64-8.05,37.64l-208.15-25.49,33.55-38.43,18.62,6.47h0Z"/>
    </g>
  </g>
  <g id="Layer_9" data-name="Layer 9">
    <path class="cls-48" d="M134.3,332.91l-3.71-1.81c-2.27-1.11-5.71-4.61-4.6-6.88l8.08-11.75c1.51-2.28,2.95-3.31,5.85-2.65l5.38,1.72c2.27,1.11,2.75,3.62,1.65,5.89l-9.82,11.81c-1.11,2.27-.56,4.76-2.83,3.65h0Z"/>
  </g>
  <g id="Layer_8" data-name="Layer 8">
    <path class="cls-29" d="M107.2,316.49s-14.15.78-10.1,18.71c0,0,1.56,5.52,20.15,8.2,0,0,24.65,4.9,28.21-1.78s2.78-18.06,1.29-19.65c-2.78-2.98-17.25-7.61-39.55-5.48h0Z"/>
  </g>
  <g id="Layer_10" data-name="Layer 10">
    <g class="cls-9">
      <path class="cls-48" d="M95.18,326.47c.26.26,8.12,7.33,24.37,9.31,16.24,1.98,20.93,3.76,29.98.66,9.05-3.11-3.63,17.43-3.63,17.43l-55.93-7.13,5.22-20.27h0Z"/>
    </g>
  </g>
  <g id="tire_base" data-name="tire base">
    <circle class="cls-33" cx="424.46" cy="327.78" r="37.94"/>
    <circle class="cls-33" cx="189.05" cy="327.78" r="37.94"/>
  </g>
  <g id="tire_center" data-name="tire center">
    <circle class="cls-8" cx="189.05" cy="327.78" r="18.1"/>
    <circle class="cls-8" cx="424.46" cy="327.78" r="17.22"/>
  </g>
  <g id="tire_shadow" data-name="tire shadow">
    <g class="cls-31">
      <path class="cls-23" d="M171.65,322.69s5.45,21.86,30.11,18.13l-12.68,15.61-34.47-19.44,17.04-14.3h0Z"/>
    </g>
    <g class="cls-2">
      <path class="cls-23" d="M406.53,321.2s6.72,24.65,31.15,19.66l-13.55,15.97-35.45-17.24,17.85-18.39h0Z"/>
    </g>
  </g>
  <g id="cutting_flag" data-name="cutting flag">
    <path d="M866.24,101c-36.28-6.23-72.82-9.29-109.92-4.99-28.33,3.29-56.21,10.95-82.03,22.83v108.73c5.66-2.03,11.1-5.11,16.72-7.24,59.8-22.73,117.67-20.7,175.23-10.7v-108.62Z"/>
  </g>
  <g id="flag_pole" data-name="flag pole">
    <path d="M213.61,290.67l9.83.26L68.15,145.38s-2.79-1.15-4.34.33-.41,4.31-.41,4.31l150.21,140.65h0Z"/>
  </g>
  <g id="new_flag" data-name="new flag">
    <path class="cls-17" d="M674.43,227.33c-46.97,21.62-97.29,28.03-148.52,23.53-42.56-3.74-84.24-13.76-125.71-23.61-40.36-9.59-81.85-21.07-123.5-22.7-42.1-1.65-76.06,13.58-103.66,45.39-28-33.18-67.3-55.46-91.99-91.45,34.8-43.31,92.69-57.92,145.85-61.82,40.05-2.94,79.01,1.47,118.15,9.64,65.33,13.63,129.9,34.11,196.97,37.29,45.79,2.17,90.69-5.31,132.42-24.62v108.35h0Z"/>
  </g>
  <g id="new_text" data-name="new text">
    <g>
      <path class="cls-24" d="M1216.64,200.13c-48.4,22.39-102.1,28.13-154.98,22.87-127.49-12.69-247.38-78.56-376.52-29.46-5.62,2.14-10.62,7.31-16.29,9.34l-.1.04c-46.97,21.62-97.97,24.9-149.2,20.4-40.62-3.58-78.91-12.49-125.71-23.61-40.36-9.59-81.85-21.07-123.5-22.7-42.1-1.65-80.65,11.15-109.38,42.55"/>
      <path class="cls-15" d="M197.3,156.76c3.03,4.96,1.42,11.59-3.61,14.65l-2.55,1.55,20.17,6.79,1.35,2.22-9.4,5.73-23.42-7.86-15.22,9.27-.2.12,9.83,16.14-8.62,5.25-28.62-46.97,37.89-23.09c5.03-3.06,11.65-1.46,14.68,3.51l7.72,12.67h0ZM188.44,162.79c.26-.16.34-.47.18-.73l-7.72-12.67c-.16-.26-.47-.34-.73-.18l-28.81,17.55c-.26.16-.34.47-.18.73l7.72,12.67c.16.26.47.34.73.18l28.81-17.55Z"/>
      <path class="cls-15" d="M262.25,130.27l-40.14,5.13,1.57,12.29,32.33-4.13,1.28,10.02-32.33,4.13,1.57,12.29,40.14-5.13,1.28,10.02-50.23,6.42-6.98-54.63,50.23-6.42,1.28,10.02h0Z"/>
      <path class="cls-15" d="M334.15,143.87l-10.08-1.4.59-4.24c.04-.3-.15-.56-.46-.6l-33.41-4.64c-.3-.04-.56.15-.6.46l-4.65,33.49c-.04.3.15.56.46.6l33.41,4.64c.3.04.56-.15.6-.46l1.43-10.3-12.35-1.71,1.39-10,22.43,3.11-2.82,20.3c-.81,5.83-6.23,9.87-12.07,9.06l-33.41-4.64c-5.83-.81-9.88-6.16-9.07-11.99l4.65-33.49c.81-5.83,6.16-9.88,11.99-9.07l33.41,4.64c5.83.81,9.96,6.17,9.14,12.01l-.59,4.24h0Z"/>
      <path class="cls-15" d="M349.07,132.55l9.86,2.16-11.79,53.8-9.86-2.16,11.79-53.8h0Z"/>
      <path class="cls-15" d="M417.45,164.04l-9.89-2.39.99-4.09c.07-.3-.1-.57-.32-.63l-32.86-7.96c-.3-.07-.57.1-.65.39l-2.66,11c-.07.3.1.57.39.65l32.86,7.96c5.65,1.37,9.22,7.11,7.83,12.84l-2.66,11c-1.38,5.73-7.19,9.2-12.84,7.83l-32.86-7.96c-5.73-1.38-9.22-7.11-7.83-12.84l.99-4.09,9.81,2.38-.99,4.09c-.07.3.1.57.39.65l32.86,7.96c.22.05.5-.11.57-.41l2.66-11c.07-.3-.1-.57-.32-.63l-32.86-7.96c-5.73-1.38-9.22-7.11-7.83-12.84l2.66-11c1.38-5.73,7.11-9.22,12.84-7.83l32.86,7.96c5.65,1.37,9.22,7.11,7.83,12.84l-.99,4.09h0Z"/>
      <path class="cls-15" d="M480.12,162.71l-2.14,9.87-21.9-4.75-9.53,43.96-9.94-2.15,9.53-43.96-21.98-4.76,2.14-9.87,53.83,11.67h0Z"/>
      <path class="cls-15" d="M536.8,195.82c-.68,5.78-6.03,10-11.88,9.31l-2.96-.35,11.69,17.78-.3,2.58-10.94-1.29-13.59-20.62-17.7-2.08-.23-.03-2.21,18.76-10.03-1.18,6.43-54.62,44.06,5.19c5.85.69,10.07,6.04,9.39,11.81l-1.74,14.74h0ZM526.1,195.1c.3.03.56-.16.59-.47l1.74-14.74c.03-.3-.16-.56-.47-.59l-33.5-3.94c-.3-.03-.56.16-.59.47l-1.74,14.74c-.03.3.16.56.47.59l33.5,3.94h0Z"/>
      <path class="cls-15" d="M590.27,168.65c5.88-.32,10.95,4.15,11.27,10.03l2.44,44.37-10.16.56-1.01-18.48-34.75,1.91,1.01,18.48-10.08.55-2.44-44.37c-.33-5.88,4.15-10.88,10.03-11.2l33.68-1.85h0ZM592.26,195.05l-.87-15.81c-.02-.31-.26-.52-.56-.5l-33.68,1.85c-.31.02-.52.26-.5.56l.87,15.81,34.75-1.91h0Z"/>
      <path class="cls-15" d="M655.07,149.8l3.2,9.58-21.26,7.1,14.25,42.66-9.65,3.22-14.25-42.66-21.33,7.13-3.2-9.58,52.24-17.45Z"/>
      <path class="cls-15" d="M661.62,144.54l9.44-3.58,19.54,51.49-9.44,3.58-19.54-51.49Z"/>
      <path class="cls-15" d="M728.87,124.61c5.68-1.23,11.39,2.39,12.64,8.14l7.16,33.04c1.25,5.76-2.46,11.41-8.14,12.64l-33.04,7.16c-5.76,1.25-11.39-2.38-12.64-8.14l-7.16-33.04c-1.25-5.76,2.39-11.39,8.14-12.64l33.04-7.16h0ZM738.39,168.57c.23-.05.4-.32.34-.62l-7.16-33.04c-.06-.3-.34-.47-.56-.42l-33.04,7.16c-.3.07-.47.34-.41.63l7.16,33.04c.07.3.34.47.64.41l33.04-7.16Z"/>
      <path class="cls-15" d="M803.09,120.51h10.17s.05,55.06.05,55.06h-11.01s-34-40.34-34-40.34l.04,40.39h-10.1s-.05-55.06-.05-55.06h11.01s33.92,40.34,33.92,40.34l-.04-40.39h0Z"/>
    </g>
  </g>
  <g id="helmet-2" data-name="helmet">
    <circle class="cls-6" cx="1150" cy="272.78" r="18.76"/>
  </g>
  <g id="Layer_18-2" data-name="Layer 18">
    <g class="cls-3">
      <path class="cls-29" d="M1130.46,277.58s5.24,5.07,30.17,4.97l-31.1,7.39.93-12.36h0Z"/>
    </g>
  </g>
  <g id="helmet_visor-2" data-name="helmet visor">
    <g class="cls-34">
      <path class="cls-50" d="M1128.85,265.92s11.66-.17,14.34.31c2.52.44,2.72,1.56,2.72,1.56,0,0,.68,3.2-1.56,6.66s-4.55,5.1-12.1,6.76c-7.54,1.67-10.4-8.36-10.4-8.36l7-6.93h0Z"/>
    </g>
  </g>
  <g id="helmet_shine-2" data-name="helmet shine">
    <path class="cls-27" d="M1155.96,259.14l1.17-1.4c.25-.3.68-.37,1.02-.17,1.48.91,5.35,3.61,6.66,7.61.14.42-.11.87-.53.99l-1.74.52c-.39.12-.8-.08-.95-.45-.51-1.2-1.94-3.8-5.42-5.93-.41-.25-.51-.81-.2-1.18h0Z"/>
  </g>
  <g id="body-2" data-name="body">
    <path class="cls-25" d="M1368.56,273.4c-.46-1.61-1.84-5.34-4.8-5.5-3.65-.2-25.34,1.68-34.43-9.98-.64-.82-1.63-1.3-2.67-1.32-5.53-.12-22.4-.06-27.44,4.91,0,0-2.64,2-1.66,19.79.02.39.11.76.27,1.11.43.95,1.59,2.8,4.62,4.98,4.45,3.21-18.04,3.34-18.04,3.34,0,0-9.44-.94-39.91-24.21-30.48-23.27-49.55-18.31-49.55-18.31,0,0,.15-6.2-3.67-6.16,0,0-16.77.57-17.73.74s-3.68,1-3.53,8.17c.15,7.17,1.21,29.41.84,29.49-.37.08-33.23,4.59-52.94,4.06-19.71-.53-57.88-3.66-97.22.74,0,0-40.8,6.35-53.03,14.12s-4.33,13.7-3.47,14.88c1.91,2.49,19.82,14.59,59.48,20.67,39.66,6.08,57.55,15.82,57.55,15.82,0,0,174.21,6.53,182.39,7.05,8.18.53,17.31-.21,18.83-.67,1.52-.45,45.59-17.37,53.92-15.72,0,0,7.41.68,14.66-2,7.25-2.67,4.79-13.43,4.33-16-.44-2.44-1.15-11.53,11.48-14.73,1.32-.33,2.26-1.5,2.34-2.85.2-3.39.3-11.54-.41-31.1-.02-.45-.08-.89-.2-1.33h.02Z"/>
  </g>
  <g id="shadows-2" data-name="shadows">
    <g class="cls-13">
      <g>
        <path class="cls-28" d="M1092.93,303.54l170.17,6.53-166.03-.47,1.28,5.71,114.93,7.4-110.02-2.04s49.96,20.08,130.62,27.37c62.78,5.68,60.97,4.59,60.97,4.59l-50.31,25.57s-170.32-14.75-170.73-14.75,19.12-59.9,19.12-59.9h0Z"/>
        <path class="cls-28" d="M1165.33,273.4s26.25,3.81,35.74,7.89c2.71,1.17-8.46-.48-15.94,1.19s-28.55,3.47-37.42,3.94-16.28,1.8-22.16-3.2c-5.88-5,39.78-9.82,39.78-9.82h0Z"/>
        <path class="cls-28" d="M1338.23,307.31s11.47,9.89,2.43,41.24l-8.24-2.55,5.81-38.69h0Z"/>
      </g>
    </g>
  </g>
  <g id="dark_shadows-2" data-name="dark shadows">
    <g class="cls-14">
      <path class="cls-35" d="M1088.91,336.87s31.27,11.55,61.18,14.27,96.52,6.66,107.67,6.12c11.15-.54-8.29,38.74-8.29,38.74l-214.25-26.24,34.53-39.56,19.17,6.66h0Z"/>
    </g>
  </g>
  <g id="Layer_9-2" data-name="Layer 9">
    <path class="cls-35" d="M1004.28,327.1l-3.82-1.86c-2.33-1.14-5.87-4.74-4.74-7.08l8.32-12.09c1.55-2.35,3.04-3.41,6.02-2.73l5.54,1.78c2.33,1.14,2.83,3.73,1.7,6.06l-10.11,12.16c-1.14,2.33-.58,4.9-2.91,3.76h0Z"/>
  </g>
  <g id="Layer_8-2" data-name="Layer 8">
    <path class="cls-28" d="M976.39,310.2s-14.56.81-10.4,19.26c0,0,1.61,5.68,20.74,8.44,0,0,25.37,5.05,29.04-1.83,3.67-6.88,2.86-18.59,1.33-20.23-2.86-3.06-17.76-7.83-40.71-5.64h0Z"/>
  </g>
  <g id="Layer_10-2" data-name="Layer 10">
    <g class="cls-22">
      <path class="cls-35" d="M964.02,320.47c.27.27,8.36,7.55,25.08,9.59,16.72,2.04,21.55,3.87,30.86.68,9.31-3.2-3.74,17.94-3.74,17.94l-57.57-7.34,5.37-20.87h0Z"/>
    </g>
  </g>
  <g id="tire_base-2" data-name="tire base">
    <circle class="cls-33" cx="1302.94" cy="321.82" r="39.05"/>
    <circle class="cls-33" cx="1060.64" cy="321.82" r="39.05"/>
  </g>
  <g id="tire_center-2" data-name="tire center">
    <circle class="cls-8" cx="1060.64" cy="321.82" r="18.63"/>
    <circle class="cls-8" cx="1302.94" cy="321.82" r="17.73"/>
  </g>
  <g id="tire_shadow-2" data-name="tire shadow">
    <g class="cls-38">
      <path class="cls-23" d="M1042.73,316.58s5.61,22.5,30.99,18.66l-13.05,16.07-35.48-20.01,17.54-14.72h0Z"/>
    </g>
    <g class="cls-49">
      <path class="cls-23" d="M1284.48,315.05s6.92,25.37,32.06,20.24l-13.95,16.44-36.49-17.75,18.37-18.93h0Z"/>
    </g>
  </g>
  <g id="flag_pole-2" data-name="flag pole">
    <path d="M1085.92,283.62l10.11.26-159.84-149.81s-2.87-1.18-4.46.34-.42,4.43-.42,4.43l154.61,144.77h0Z"/>
  </g>
  <g id="new_flag-2" data-name="new flag">
    <path class="cls-17" d="M1560.24,218.43c-48.34,22.25-100.15,28.85-152.87,24.21-43.8-3.85-86.71-14.16-129.39-24.31-41.54-9.87-84.25-21.68-127.12-23.36-43.33-1.7-78.28,13.98-106.7,46.72-28.82-34.15-69.27-57.09-94.69-94.13,35.82-44.58,95.41-59.62,150.12-63.63,41.22-3.02,81.32,1.51,121.62,9.92,67.25,14.03,133.71,35.11,202.74,38.38,47.13,2.24,93.35-5.47,136.3-25.34v111.53h0Z"/>
  </g>
  <g id="new_text-2" data-name="new text">
    <g>
      <path class="cls-24" d="M1546.62,190.23c-48.34,22.25-100.15,28.85-152.87,24.21-43.8-3.85-86.71-14.16-129.39-24.31-41.54-9.87-84.25-21.68-127.12-23.36-43.33-1.7-78.28,13.98-106.7,46.72"/>
      <path class="cls-16" d="M1011.17,150.62l8.84-5.46,24.39,39.44,39.37-24.35,5.46,8.84-48.22,29.81-29.85-48.28h0Z"/>
      <path class="cls-16" d="M1130.86,109.2c5.96-.51,11.32,3.92,11.84,9.96l2.98,34.67c.52,6.04-4,11.33-9.96,11.84l-34.67,2.98c-6.04.52-11.32-3.92-11.84-9.96l-2.98-34.67c-.52-6.04,3.92-11.32,9.96-11.84l34.67-2.98h0ZM1134.84,155.33c.24-.02.45-.28.43-.59l-2.98-34.67c-.03-.31-.28-.53-.52-.51l-34.67,2.98c-.31.03-.53.28-.5.59l2.98,34.67c.03.31.28.53.6.5l34.67-2.98h0Z"/>
      <path class="cls-16" d="M1216.4,135.61l-10.33-1.74.74-4.35c.05-.31-.14-.58-.45-.63l-34.24-5.78c-.31-.05-.58.14-.63.45l-5.79,34.31c-.05.31.14.58.45.63l34.24,5.78c.31.05.58-.14.63-.45l1.78-10.56-12.65-2.14,1.73-10.25,22.98,3.88-3.52,20.81c-1.01,5.98-6.71,9.96-12.69,8.96l-34.24-5.78c-5.98-1.01-9.98-6.64-8.97-12.61l5.79-34.31c1.01-5.98,6.64-9.98,12.61-8.97l34.24,5.78c5.98,1.01,10.05,6.65,9.05,12.62l-.74,4.35h0Z"/>
      <path class="cls-16" d="M1231.46,123.96l10.12,2.35-12.82,55.22-10.12-2.35,12.82-55.22Z"/>
      <path class="cls-16" d="M1301.13,156.35l-10.18-2.43,1.01-4.21c.07-.31-.1-.59-.33-.65l-33.85-8.09c-.31-.07-.59.1-.67.41l-2.71,11.33c-.07.31.1.59.41.67l33.85,8.09c5.82,1.39,9.51,7.29,8.1,13.19l-2.71,11.33c-1.41,5.9-7.37,9.49-13.19,8.1l-33.85-8.09c-5.9-1.41-9.51-7.29-8.1-13.19l1.01-4.21,10.11,2.42-1.01,4.21c-.07.31.1.59.41.67l33.85,8.09c.23.06.52-.12.59-.43l2.71-11.33c.07-.31-.1-.59-.33-.65l-33.85-8.09c-5.9-1.41-9.51-7.29-8.1-13.19l2.71-11.33c1.41-5.9,7.29-9.51,13.19-8.1l33.85,8.09c5.82,1.39,9.51,7.29,8.1,13.19l-1.01,4.21h0Z"/>
      <path class="cls-16" d="M1365.67,154.33l-2.07,10.18-22.61-4.59-9.21,45.37-10.26-2.08,9.21-45.37-22.68-4.6,2.07-10.18,55.55,11.27h0Z"/>
      <path class="cls-16" d="M1371.89,154.77l10.29,1.45-7.89,56.14-10.29-1.45,7.89-56.14Z"/>
      <path class="cls-16" d="M1398.68,168.87c-.31,0-.56.22-.57.54l-1.09,34.78c0,.31.22.56.54.57l45.57,1.42-.32,10.39-45.57-1.42c-6.06-.19-10.79-5.22-10.6-11.28l1.09-34.78c.19-6.06,5.22-10.79,11.28-10.6l45.57,1.42-.32,10.39-45.57-1.42h0Z"/>
      <path class="cls-16" d="M1507.54,163.09l-10.25,2.16-.89-4.24c-.07-.31-.35-.49-.57-.44l-34.05,7.17c-.31.07-.49.35-.43.65l2.4,11.4c.07.31.35.49.65.43l34.05-7.17c5.85-1.23,11.72,2.52,12.96,8.46l2.4,11.4c1.25,5.93-2.6,11.73-8.46,12.96l-34.05,7.17c-5.93,1.25-11.72-2.52-12.96-8.46l-.89-4.24,10.17-2.14.89,4.24c.07.31.35.49.65.43l34.05-7.17c.23-.05.41-.33.35-.64l-2.4-11.4c-.06-.31-.35-.49-.57-.44l-34.05,7.17c-5.93,1.25-11.72-2.52-12.96-8.46l-2.4-11.4c-1.25-5.93,2.52-11.72,8.46-12.96l34.05-7.17c5.85-1.23,11.72,2.52,12.96,8.46l.89,4.24h0Z"/>
    </g>
  </g>
  <g id="helmet-3" data-name="helmet">
    <circle class="cls-43" cx="289.55" cy="759.92" r="19.58"/>
  </g>
  <g id="Layer_18-3" data-name="Layer 18">
    <g class="cls-39">
      <path class="cls-19" d="M269.16,764.93s5.47,5.29,31.49,5.19l-32.46,7.72.97-12.9h0Z"/>
    </g>
  </g>
  <g id="helmet_visor-3" data-name="helmet visor">
    <g class="cls-5">
      <path class="cls-50" d="M267.47,752.76s12.17-.17,14.97.32c2.63.46,2.84,1.63,2.84,1.63,0,0,.71,3.34-1.63,6.95s-4.75,5.32-12.63,7.06c-7.87,1.74-10.86-8.73-10.86-8.73l7.31-7.24h0Z"/>
    </g>
  </g>
  <g id="helmet_shine-3" data-name="helmet shine">
    <path class="cls-44" d="M295.78,745.69l1.22-1.46c.26-.31.71-.39,1.06-.18,1.55.95,5.58,3.76,6.96,7.94.14.44-.11.9-.55,1.04l-1.82.55c-.4.12-.83-.08-.99-.47-.53-1.25-2.03-3.97-5.66-6.19-.43-.26-.53-.84-.21-1.23h0Z"/>
  </g>
  <g id="body-3" data-name="body">
    <path class="cls-18" d="M517.68,760.57c-.48-1.68-1.92-5.58-5.01-5.74-3.81-.21-26.45,1.76-35.94-10.42-.67-.86-1.7-1.36-2.79-1.38-5.77-.13-23.38-.06-28.64,5.13,0,0-2.76,2.09-1.73,20.66.02.4.12.8.28,1.16.45.99,1.66,2.92,4.82,5.2,4.64,3.35-18.83,3.49-18.83,3.49,0,0-9.85-.98-41.66-25.27-31.81-24.29-51.72-19.11-51.72-19.11,0,0,.16-6.47-3.83-6.43,0,0-17.5.6-18.51.77s-3.84,1.04-3.68,8.53,1.26,30.69.88,30.78c-.39.09-34.68,4.79-55.25,4.24-20.57-.55-60.42-3.82-101.48.77,0,0-42.58,6.63-55.36,14.74s-4.52,14.3-3.62,15.54c2,2.6,20.68,15.23,62.08,21.57,41.4,6.34,60.07,16.51,60.07,16.51,0,0,181.83,6.81,190.37,7.36,8.54.55,18.07-.22,19.65-.69,1.58-.47,47.59-18.13,56.28-16.41,0,0,7.73.71,15.3-2.08,7.57-2.79,5-14.02,4.52-16.7-.46-2.55-1.2-12.04,11.99-15.38,1.38-.35,2.36-1.56,2.44-2.98.21-3.54.32-12.04-.43-32.46-.02-.47-.09-.93-.21-1.38h.02Z"/>
  </g>
  <g id="shadows-3" data-name="shadows">
    <g class="cls-45">
      <g>
        <path class="cls-51" d="M229.99,792.03l177.62,6.81-173.29-.49,1.33,5.96,119.96,7.72-114.83-2.13s52.15,20.96,136.33,28.57c65.53,5.93,63.64,4.79,63.64,4.79l-52.51,26.69s-177.77-15.4-178.2-15.4,19.96-62.53,19.96-62.53h0Z"/>
        <path class="cls-51" d="M305.55,760.57s27.4,3.97,37.3,8.23c2.83,1.22-8.83-.5-16.64,1.24-7.8,1.74-29.8,3.62-39.06,4.11s-16.99,1.88-23.13-3.34c-6.14-5.22,41.52-10.25,41.52-10.25h0Z"/>
        <path class="cls-51" d="M486.02,795.97s11.97,10.32,2.54,43.05l-8.6-2.66,6.06-40.38h0Z"/>
      </g>
    </g>
  </g>
  <g id="dark_shadows-3" data-name="dark shadows">
    <g class="cls-4">
      <path class="cls-47" d="M225.79,826.82s32.63,12.06,63.85,14.9,100.74,6.95,112.38,6.39-8.65,40.44-8.65,40.44l-223.62-27.39,36.04-41.29,20.01,6.95h0Z"/>
    </g>
  </g>
  <g id="Layer_9-3" data-name="Layer 9">
    <path class="cls-47" d="M137.46,816.62l-3.99-1.94c-2.44-1.19-6.13-4.95-4.94-7.39l8.68-12.62c1.62-2.45,3.17-3.55,6.29-2.85l5.78,1.85c2.44,1.19,2.96,3.89,1.77,6.33l-10.55,12.69c-1.19,2.44-.6,5.11-3.04,3.92h0Z"/>
  </g>
  <g id="Layer_8-3" data-name="Layer 8">
    <path class="cls-51" d="M108.34,798.99s-15.2.84-10.86,20.11c0,0,1.68,5.93,21.65,8.81,0,0,26.48,5.27,30.31-1.91s2.99-19.4,1.39-21.12c-2.99-3.2-18.54-8.18-42.49-5.89h0Z"/>
  </g>
  <g id="Layer_10-3" data-name="Layer 10">
    <g class="cls-7">
      <path class="cls-47" d="M95.43,809.7c.28.28,8.73,7.88,26.18,10.01,17.45,2.13,22.49,4.04,32.21.71,9.72-3.34-3.9,18.73-3.9,18.73l-60.09-7.66,5.6-21.78h0Z"/>
    </g>
  </g>
  <g id="tire_base-3" data-name="tire base">
    <circle class="cls-33" cx="449.19" cy="811.11" r="40.76"/>
    <circle class="cls-33" cx="196.28" cy="811.11" r="40.76"/>
  </g>
  <g id="tire_center-3" data-name="tire center">
    <circle class="cls-8" cx="196.28" cy="811.11" r="19.44"/>
    <circle class="cls-8" cx="449.19" cy="811.11" r="18.5"/>
  </g>
  <g id="tire_shadow-3" data-name="tire shadow">
    <g class="cls-40">
      <path class="cls-23" d="M177.58,805.64s5.85,23.48,32.35,19.48l-13.62,16.77-37.03-20.89,18.31-15.37h0Z"/>
    </g>
    <g class="cls-32">
      <path class="cls-23" d="M429.92,804.04s7.22,26.48,33.47,21.12l-14.56,17.15-38.08-18.52,19.18-19.76h0Z"/>
    </g>
  </g>
  <g id="flag_pole-3" data-name="flag pole">
    <path d="M222.67,771.24l10.56.28-166.84-156.36s-3-1.24-4.66.36-.44,4.63-.44,4.63l161.38,151.1h0Z"/>
  </g>
  <g id="new_flag-3" data-name="new flag">
    <path class="cls-17" d="M717.74,703.19c-50.46,23.22-104.53,30.11-159.56,25.27-45.72-4.02-90.5-14.78-135.06-25.37-43.36-10.3-87.94-22.63-132.68-24.38-45.23-1.77-81.71,14.59-111.36,48.77-30.08-35.65-72.31-59.58-98.83-98.25,37.38-46.53,99.58-62.23,156.69-66.41,43.03-3.16,84.88,1.58,126.94,10.35,70.19,14.64,139.56,36.64,211.61,40.06,49.2,2.33,97.43-5.71,142.26-26.45v116.41h0Z"/>
  </g>
  <g id="new_text-3" data-name="new text">
    <g>
      <path class="cls-24" d="M703.52,673.77c-50.46,23.22-104.53,30.11-159.56,25.27-45.72-4.02-90.5-14.78-135.06-25.37-43.36-10.3-87.94-22.63-132.68-24.38-45.23-1.77-81.71,14.59-111.36,48.77"/>
      <path class="cls-16" d="M233.47,606.79l-10.22,3.86-1.63-4.31c-.12-.31-.44-.45-.74-.33l-33.9,12.8c-.31.12-.45.44-.33.74l12.83,33.98c.12.31.44.45.74.33l33.9-12.8c.31-.12.45-.44.34-.74l-3.95-10.46-12.53,4.73-3.83-10.15,22.76-8.6,7.78,20.6c2.24,5.92-.81,12.52-6.73,14.75l-33.9,12.8c-5.92,2.24-12.49-.73-14.72-6.65l-12.83-33.98c-2.24-5.92.73-12.49,6.65-14.72l33.9-12.8c5.92-2.24,12.57.7,14.8,6.62l1.63,4.31h0Z"/>
      <path class="cls-16" d="M307.86,602.24l-43.44-1.8-.55,13.3,34.98,1.45-.45,10.84-34.98-1.45-.55,13.3,43.44,1.8-.45,10.84-54.36-2.26,2.46-59.12,54.36,2.26-.45,10.84Z"/>
      <path class="cls-16" d="M371.04,603.57l10.71,2.18-11.78,57.98-11.6-2.36-27.11-49.79-8.65,42.52-10.63-2.16,11.79-57.98,11.6,2.36,27.03,49.77,8.65-42.52h0Z"/>
      <path class="cls-16" d="M442.57,632.06l-42.27-10.14-3.11,12.94,34.04,8.17-2.53,10.55-34.04-8.17-3.11,12.94,42.27,10.14-2.53,10.55-52.9-12.7,13.81-57.53,52.9,12.7-2.53,10.55h0Z"/>
      <path class="cls-16" d="M503.95,662.27c-1.27,6.11-7.4,10.12-13.6,8.83l-3.14-.65,10.83,20.14-.57,2.74-11.58-2.42-12.59-23.36-18.75-3.91-.24-.05-4.15,19.87-10.62-2.21,12.07-57.84,46.66,9.73c6.2,1.29,10.21,7.42,8.93,13.53l-3.25,15.61h0ZM492.57,660.48c.32.07.61-.12.68-.44l3.25-15.61c.07-.32-.12-.61-.44-.68l-35.48-7.4c-.32-.07-.61.12-.68.44l-3.25,15.61c-.07.32.12.61.44.68l35.48,7.4Z"/>
      <path class="cls-16" d="M563.24,641.49c6.3.62,10.95,6.19,10.34,12.49l-4.64,47.52-10.88-1.06,1.93-19.79-37.21-3.63-1.94,19.79-10.79-1.06,4.64-47.52c.62-6.3,6.18-10.87,12.48-10.26l36.07,3.52h0ZM561.05,669.85l1.65-16.93c.03-.33-.19-.6-.52-.63l-36.07-3.52c-.33-.03-.6.19-.63.52l-1.65,16.93,37.21,3.64h0Z"/>
      <path class="cls-16" d="M579.51,642.63l10.78-1.19,5.31,48.11,48.03-5.3,1.19,10.78-58.81,6.49-6.5-58.89h0Z"/>
    </g>
  </g>
  <g id="helmet-4" data-name="helmet">
    <circle class="cls-18" cx="1166.63" cy="772.4" r="18.91"/>
  </g>
  <g id="Layer_18-4" data-name="Layer 18">
    <g class="cls-1">
      <path class="cls-51" d="M1146.93,777.24s5.29,5.11,30.41,5.01l-31.34,7.45.93-12.46h0Z"/>
    </g>
  </g>
  <g id="helmet_visor-4" data-name="helmet visor">
    <g class="cls-11">
      <path class="cls-50" d="M1145.3,765.49s11.75-.17,14.46.31c2.54.44,2.74,1.58,2.74,1.58,0,0,.69,3.22-1.58,6.71s-4.59,5.14-12.19,6.82c-7.6,1.68-10.48-8.43-10.48-8.43l7.06-6.99h0Z"/>
    </g>
  </g>
  <g id="helmet_shine-4" data-name="helmet shine">
    <path class="cls-42" d="M1172.64,758.65l1.17-1.41c.25-.3.69-.38,1.02-.17,1.5.92,5.39,3.63,6.72,7.67.14.42-.11.87-.53,1l-1.75.53c-.39.12-.8-.08-.96-.45-.51-1.21-1.96-3.83-5.47-5.98-.42-.25-.51-.81-.2-1.19h0Z"/>
  </g>
  <g id="body-4" data-name="body">
    <path class="cls-43" d="M1386.94,773.03c-.46-1.63-1.85-5.38-4.84-5.55-3.68-.2-25.54,1.7-34.71-10.06-.65-.83-1.64-1.31-2.69-1.33-5.57-.12-22.57-.06-27.66,4.95,0,0-2.66,2.02-1.67,19.95.02.39.11.77.27,1.12.44.96,1.6,2.82,4.65,5.02,4.48,3.23-18.19,3.37-18.19,3.37,0,0-9.51-.95-40.23-24.41-30.72-23.46-49.95-18.46-49.95-18.46,0,0,.15-6.25-3.7-6.21,0,0-16.9.58-17.88.74s-3.71,1-3.56,8.23,1.22,29.64.85,29.73c-.37.08-33.49,4.62-53.36,4.09-19.86-.53-58.35-3.69-98,.75,0,0-41.12,6.4-53.46,14.24-12.34,7.84-4.36,13.81-3.5,15,1.93,2.51,19.98,14.71,59.95,20.83,39.98,6.13,58.01,15.95,58.01,15.95,0,0,175.6,6.58,183.85,7.11,8.25.53,17.45-.21,18.98-.67,1.53-.46,45.96-17.51,54.35-15.85,0,0,7.47.68,14.78-2.01,7.31-2.69,4.83-13.54,4.36-16.13-.44-2.46-1.16-11.63,11.58-14.85,1.33-.34,2.28-1.51,2.36-2.88.2-3.42.31-11.63-.42-31.35-.02-.45-.08-.9-.21-1.34h.02Z"/>
  </g>
  <g id="shadows-4" data-name="shadows">
    <g class="cls-12">
      <g>
        <path class="cls-30" d="M1109.1,803.41l171.54,6.58-167.36-.47,1.29,5.75,115.85,7.46-110.9-2.06s50.36,20.24,131.66,27.59c63.28,5.72,61.45,4.63,61.45,4.63l-50.71,25.78s-171.68-14.87-172.09-14.87,19.28-60.38,19.28-60.38h0Z"/>
        <path class="cls-30" d="M1182.08,773.02s26.46,3.84,36.02,7.95c2.73,1.17-8.53-.48-16.07,1.2s-28.78,3.5-37.72,3.97c-8.94.48-16.41,1.82-22.34-3.22-5.93-5.04,40.1-9.9,40.1-9.9h0Z"/>
        <path class="cls-30" d="M1356.36,807.21s11.56,9.97,2.45,41.57l-8.31-2.57,5.86-39h0Z"/>
      </g>
    </g>
  </g>
  <g id="dark_shadows-4" data-name="dark shadows">
    <g class="cls-52">
      <path class="cls-10" d="M1105.05,837s31.52,11.65,61.66,14.39,97.29,6.71,108.53,6.17c11.24-.55-8.36,39.05-8.36,39.05l-215.96-26.45,34.8-39.88,19.32,6.71h0Z"/>
    </g>
  </g>
  <g id="Layer_9-4" data-name="Layer 9">
    <path class="cls-10" d="M1019.74,827.16l-3.85-1.88c-2.35-1.15-5.92-4.78-4.77-7.13l8.38-12.19c1.57-2.37,3.06-3.43,6.07-2.75l5.58,1.79c2.35,1.15,2.86,3.76,1.71,6.11l-10.19,12.26c-1.15,2.35-.58,4.94-2.94,3.79h0Z"/>
  </g>
  <g id="Layer_8-4" data-name="Layer 8">
    <path class="cls-30" d="M991.63,810.12s-14.68.81-10.48,19.42c0,0,1.62,5.73,20.91,8.51,0,0,25.57,5.09,29.27-1.85,3.7-6.94,2.88-18.74,1.34-20.39-2.88-3.09-17.9-7.9-41.04-5.69h0Z"/>
  </g>
  <g id="Layer_10-4" data-name="Layer 10">
    <g class="cls-20">
      <path class="cls-10" d="M979.15,820.47c.27.27,8.43,7.61,25.28,9.66,16.85,2.06,21.72,3.9,31.11.69,9.38-3.22-3.77,18.09-3.77,18.09l-58.03-7.4,5.41-21.04h0Z"/>
    </g>
  </g>
  <g id="tire_base-4" data-name="tire base">
    <circle class="cls-33" cx="1320.79" cy="821.83" r="39.36"/>
    <circle class="cls-33" cx="1076.55" cy="821.83" r="39.36"/>
  </g>
  <g id="tire_center-4" data-name="tire center">
    <circle class="cls-8" cx="1076.55" cy="821.83" r="18.78"/>
    <circle class="cls-8" cx="1320.79" cy="821.83" r="17.87"/>
  </g>
  <g id="tire_shadow-4" data-name="tire shadow">
    <g class="cls-37">
      <path class="cls-23" d="M1058.49,816.55s5.65,22.68,31.24,18.81l-13.15,16.2-35.76-20.17,17.68-14.84h0Z"/>
    </g>
    <g class="cls-21">
      <path class="cls-23" d="M1302.18,815.01s6.97,25.57,32.32,20.4l-14.06,16.57-36.78-17.89,18.52-19.08h0Z"/>
    </g>
  </g>
  <g id="flag_pole-4" data-name="flag pole">
    <path d="M1102.03,783.33l10.19.27-161.12-151s-2.9-1.19-4.5.35c-1.6,1.54-.42,4.47-.42,4.47l155.85,145.92h0Z"/>
    <path d="M980.27,669.37l10.19.27-161.12-151s-2.9-1.19-4.5.35c-1.6,1.54-.42,4.47-.42,4.47l155.85,145.92Z"/>
  </g>
  <g id="new_flag-4" data-name="new flag">
    <path class="cls-17" d="M1580.14,717.62c-48.73,22.43-100.95,29.08-154.09,24.41-44.15-3.88-87.4-14.28-130.43-24.5-41.88-9.95-84.92-21.86-128.14-23.55-43.68-1.71-78.91,14.09-107.55,47.1-29.05-34.42-69.83-57.54-95.44-94.89,36.1-44.93,96.17-60.09,151.32-64.14,41.55-3.05,81.97,1.52,122.59,10,67.78,14.14,134.77,35.39,204.36,38.69,47.51,2.25,94.09-5.51,137.39-25.54v112.42h0Z"/>
  </g>
  <g id="chop_layer" data-name="chop layer">
    <path d="M1422.42,498.39c-119.25-11.11-236.16-70.05-358.31-41.99-18.33,4.21-143.89,32.69-191.17,106.27l79.59,71.51c41.46-46.41,103.17-64.23,126.9-68.39,109.05-19.08,213.28,27.61,320.02,42.53l22.98-109.95h0Z"/>
  </g>
  <g id="new_text-4" data-name="new text">
    <g>
      <path class="cls-24" d="M1566.41,689.2c-48.73,22.43-100.95,29.08-154.09,24.41-44.15-3.88-87.4-14.28-130.43-24.5-41.88-9.95-84.92-21.86-128.14-23.55-43.68-1.71-78.91,14.09-107.55,47.1"/>
      <path class="cls-16" d="M1053.22,644.24c-.29.14-.39.46-.25.75l15.58,31.43c.14.29.46.39.75.25l41.17-20.41,4.65,9.38-41.17,20.41c-5.48,2.71-12.07.49-14.78-4.98l-15.58-31.43c-2.71-5.48-.49-12.07,4.98-14.78l41.17-20.41,4.65,9.38-41.17,20.41h0Z"/>
      <path class="cls-16" d="M1165.72,608.32c6.03.01,11.02,4.94,11.01,11.05l-.07,35.08c-.01,6.11-5.02,11.02-11.05,11.01l-35.08-.07c-6.11-.01-11.02-4.94-11.01-11.05l.07-35.08c.01-6.11,4.94-11.02,11.05-11.01l35.08.07h0ZM1165.63,654.99c.24,0,.48-.24.48-.56l.07-35.08c0-.32-.24-.56-.48-.56l-35.08-.07c-.32,0-.56.24-.56.56l-.07,35.08c0,.32.24.56.56.56l35.08.07Z"/>
      <path class="cls-16" d="M1241.08,620.44l10.36,2.04-11.02,56.07-11.21-2.2-26.49-47.91-8.08,41.12-10.28-2.02,11.02-56.07,11.21,2.2,26.42,47.9,8.08-41.12h0Z"/>
      <path class="cls-16" d="M1308.11,636.64c5.94,1.42,9.65,7.38,8.23,13.32l-8.19,34.11c-1.42,5.94-7.44,9.56-13.38,8.13l-44.76-10.74,13.34-55.56,44.76,10.74h0ZM1306.07,647.49c.08-.31-.1-.6-.41-.67l-34.03-8.17c-.31-.08-.6.1-.67.41l-8.19,34.11c-.08.31.1.6.41.67l34.03,8.17c.31.08.6-.1.67-.41l8.19-34.11Z"/>
      <path class="cls-16" d="M1372.99,650.78l10.34,2.11-9.2,45.18c-1.22,5.99-7.1,9.81-13.01,8.61l-34.37-7c-5.99-1.22-9.83-7.02-8.61-13.01l9.2-45.18,10.27,2.09-9.2,45.18c-.06.31.12.59.43.65l34.37,7c.23.05.52-.14.58-.45l9.2-45.18h0Z"/>
      <path class="cls-16" d="M1401.02,665.85c-.32-.03-.58.19-.6.51l-2.89,34.96c-.03.32.19.57.51.6l45.8,3.79-.86,10.44-45.8-3.79c-6.09-.5-10.59-5.81-10.09-11.9l2.89-34.96c.5-6.09,5.81-10.59,11.9-10.09l45.8,3.79-.87,10.44-45.8-3.79h0Z"/>
      <path class="cls-16" d="M1506.72,651.87l1.38,10.38-23.05,3.07,6.15,46.26-10.46,1.39-6.15-46.26-23.13,3.08-1.38-10.38,56.65-7.53h0Z"/>
    </g>
  </g>
  <g id="text">
    <g>
      <path class="cls-24" d="M1580.34,557.83c-21.03,9.65-43.32,16.69-66.15,20.84-148.2,26.92-287.07-67.92-434.77-42.07-23.73,4.15-85.43,21.98-126.9,68.39"/>
      <path class="cls-16" d="M956.88,538.43c-.27.17-.35.5-.18.77l18.42,29.85c.17.27.5.35.77.18l39.1-24.13,5.5,8.92-39.1,24.13c-5.2,3.21-11.97,1.61-15.18-3.6l-18.42-29.85c-3.21-5.2-1.61-11.97,3.6-15.18l39.1-24.13,5.5,8.92-39.1,24.13h0Z"/>
      <path class="cls-16" d="M1051.77,483.69c5.75-1.83,12,1.35,13.86,7.17l10.63,33.43c1.85,5.82-1.42,12.03-7.17,13.86l-33.43,10.63c-5.82,1.85-12-1.35-13.86-7.17l-10.63-33.43c-1.85-5.82,1.35-12,7.17-13.86l33.43-10.63h0ZM1065.92,528.16c.23-.07.38-.37.29-.67l-10.63-33.43c-.1-.3-.4-.46-.62-.38l-33.43,10.63c-.3.1-.46.4-.36.7l10.63,33.43c.1.3.4.46.7.36l33.43-10.63Z"/>
      <path class="cls-16" d="M1127.99,474.57c6.1-.35,11.38,4.27,11.73,10.37l2.04,35.02c.35,6.1-4.35,11.3-10.45,11.66l-45.95,2.67-3.32-57.05,45.95-2.67h0ZM1129.18,485.56c-.02-.32-.27-.54-.59-.52l-34.94,2.03c-.32.02-.54.27-.52.59l2.04,35.02c.02.32.27.54.59.52l34.94-2.03c.32-.02.54-.27.52-.59l-2.04-35.02Z"/>
      <path class="cls-16" d="M1206.46,490.78l-41.75-4.4-1.35,12.79,33.62,3.54-1.1,10.42-33.62-3.54-1.35,12.79,41.75,4.4-1.1,10.42-52.25-5.51,5.99-56.83,52.25,5.51-1.1,10.42h0Z"/>
      <path class="cls-16" d="M1289.44,497.51c5.88,1.33,9.67,7.24,8.32,13.2l-7.76,34.21c-1.35,5.96-7.31,9.65-13.2,8.32l-34.21-7.75c-5.96-1.35-9.67-7.24-8.32-13.2l7.75-34.21c1.35-5.96,7.24-9.67,13.2-8.32l34.21,7.76h0ZM1279.12,543.02c.23.05.52-.13.59-.44l7.75-34.21c.07-.31-.11-.6-.34-.65l-34.21-7.76c-.31-.07-.6.11-.66.42l-7.75,34.21c-.07.31.11.6.42.67l34.21,7.75h0Z"/>
      <path class="cls-16" d="M1360.07,514.24l-2.38,10.2-40.88-9.54-2.92,12.52,32.92,7.68-2.38,10.2-32.92-7.68-5.3,22.72-10.28-2.4,12.99-55.65,51.16,11.94h0Z"/>
    </g>
  </g>
</svg>